<svg width="24" height="30" viewBox="0 0 24 30" fill="none" xmlns="http://www.w3.org/2000/svg">
<path d="M23.1253 26.3547L23.1253 26.3547C22.9184 26.4788 18.207 29.2625 12 29.2625C6.26778 29.2625 1.1186 26.4884 0.898502 26.3683C0.898499 26.3683 0.898496 26.3683 0.898493 26.3683L0.994277 26.1928C0.920352 26.1524 0.858655 26.0929 0.81567 26.0205C0.772686 25.9481 0.75 25.8655 0.75 25.7812C0.75 21.9965 1.91057 18.5332 4.01783 16.0288C5.42294 14.359 7.16918 13.1957 9.09626 12.6144L23.1253 26.3547ZM23.1253 26.3547C23.2243 26.2953 23.3063 26.2112 23.3632 26.1107C23.4201 26.0102 23.45 25.8967 23.45 25.7812C23.45 21.9572 22.2775 18.446 20.1352 15.9C18.7517 14.2558 17.0399 13.0915 15.1472 12.4809M23.1253 26.3547L15.1472 12.4809M15.1472 12.4809C16.2327 11.8541 17.1099 10.9152 17.661 9.78093C18.2851 8.49623 18.4538 7.03744 18.1392 5.64422C17.8246 4.251 17.0454 3.00623 15.9298 2.11441C14.8141 1.22259 13.4283 0.736768 12 0.736768C10.5717 0.736768 9.18588 1.22259 8.07022 2.11441C6.95457 3.00623 6.17543 4.251 5.86082 5.64422C5.54622 7.03744 5.71486 8.49623 6.33904 9.78093C6.89011 10.9152 7.76732 11.8541 8.85279 12.4809C6.96011 13.0915 5.24828 14.2559 3.8648 15.9L15.1472 12.4809ZM14.7535 11.1522C13.9386 11.6968 12.9804 11.9875 12.0002 11.9875C10.6861 11.986 9.42631 11.4633 8.49711 10.5341C7.56792 9.60494 7.04524 8.3451 7.04375 7.03102C7.04379 6.05085 7.33447 5.09269 7.87903 4.2777C8.42363 3.46265 9.19769 2.8274 10.1033 2.45227C11.009 2.07714 12.0055 1.97899 12.9669 2.17023C13.9283 2.36147 14.8115 2.83351 15.5046 3.52665C16.1977 4.2198 16.6698 5.10291 16.861 6.06433C17.0523 7.02575 16.9541 8.02229 16.579 8.92792C16.2039 9.83356 15.5686 10.6076 14.7535 11.1522ZM4.88817 16.7611C6.75643 14.5413 9.28157 13.325 12 13.325C14.7184 13.325 17.2436 14.5413 19.1118 16.7611C20.97 18.9694 22.0316 22.0189 22.1081 25.3892C20.9526 26.0008 16.9241 27.925 12 27.925C7.44593 27.925 3.13817 25.9863 1.89233 25.3739C1.9718 22.0095 3.03283 18.966 4.88817 16.7611Z" fill="#1F1F1F" stroke="#1F1F1F" stroke-width="0.4"/>
</svg>
